<svg id="b27d9ef0-53d2-4afb-97db-a8649b3659b2" data-name="Layer 1" xmlns="http://www.w3.org/2000/svg" xmlns:xlink="http://www.w3.org/1999/xlink" viewBox="0 0 500 531.39"><defs><clipPath id="bdeaca14-2cc7-4de1-b6b1-b33c342946f4" transform="translate(0 8.43)"><path d="M498.17,506.55H48.44C33.91,464.45,57.88,383,57.88,383,.49,264.57,70.23,189,70.23,189c10.18-77,55.22-74.83,55.22-74.83L146.52,96c21.07-18.16,8-35.6,5.81-74.1S179.22,7.38,179.22,7.38s23.25,54.49,44.32,62.48,106,9.68,106,9.68a576.81,576.81,0,0,0,46.35-46.35c26.77-30.4,44.8-17.51,44.8-17.51,39.55,59.85,8.43,119.57,8.43,119.57S513.34,228.67,498.17,506.55Z" fill="none"/></clipPath><clipPath id="af22c92b-b7be-4848-bae3-dc3922c0e8a5" transform="translate(0 8.43)"><path d="M224.81,212.64s14.83-16.44,27.71-28.58c13.46-12.69,38.75-2.79,56.57,19.49,0,0-5.66,27-50.28,27C228.9,230.55,224.81,212.64,224.81,212.64Z" fill="none"/></clipPath><clipPath id="b1e2e441-6cb3-499e-acbf-e1128a3a437e" transform="translate(0 8.43)"><circle cx="270.99" cy="210.52" r="26" fill="none"/></clipPath></defs><path d="M498.17,506.55H48.44C33.91,464.45,57.88,383,57.88,383,.49,264.57,70.23,189,70.23,189c10.18-77,55.22-74.83,55.22-74.83L146.52,96c21.07-18.16,8-35.6,5.81-74.1S179.22,7.38,179.22,7.38s23.25,54.49,44.32,62.48,106,9.68,106,9.68a576.81,576.81,0,0,0,46.35-46.35c26.77-30.4,44.8-17.51,44.8-17.51,39.55,59.85,8.43,119.57,8.43,119.57S513.34,228.67,498.17,506.55Z" transform="translate(0 8.43)" fill="#e4be88"/><g clip-path="url(#bdeaca14-2cc7-4de1-b6b1-b33c342946f4)"><path d="M154.31,87.06s34-18.23,51.33-21.17,19.17-7.57,19.17-7.57L177.23-8.43l-32.86,4Z" transform="translate(0 8.43)" fill="#dda96b"/><path d="M150-.92s20.67,2.56,21.51,16.56-5.12,31.59-1.4,36.5c6,8,14.1,21.12,14.1,21.12s6.72-5.2,23.43-7.7,26.73-5.05,26.73-5.05L187.59-4.58Z" transform="translate(0 8.43)" fill="#bf905c"/><path d="M329.57,79.54s-12.84,9.79,3.76,20.15c14.63,9.13,12.35,8.85,19.73,13.46s39.26,22.38,42,28.76,6.9,9.55,16.1,15.29c0,0,8.48,7.23,9.86,3.06,3.49-10.58,4.58-11.57,8.1-25,0,0,15.6-31.31,17.47-60.93S423.4-.45,405.71,7.24,329.57,79.54,329.57,79.54Z" transform="translate(0 8.43)" fill="#bf905c"/></g><g clip-path="url(#bdeaca14-2cc7-4de1-b6b1-b33c342946f4)"><path d="M46,217.31s25.34-40.85,38.76-44.93,24-3.75,18.69,9.62-15.22,46.72,11.67,54.38c16.44,4.69,27.43,14.26,39.22,11s49.74-4.45,58.05,0,35-3.19,40,7.68c0,0,20.61,4,46.84-16s3.75-26.64,50.59-21.75S421.86,229,414.58,251.2s17,65.87-29.14,96.62-9.62,69.8,2.24,61.24,21.45,18.65,12.76,29.72,42.68-48.21,60.06-32.4,45.05,71.91,22.13,108.27L31.85,523S-20.19,406.55,46,217.31Z" transform="translate(0 8.43)" fill="#f9efd7"/></g><path d="M199.33,174.88s14.41-23,39.66-30.87c9-2.81,58.94,29.91,65.09,43.1s-19.35,35.68-19.35,35.68l-57.17-13.58s-7.13,63.89-39.67,73.84-38.23-5.64-38.23-5.64S58.84,262.17,97.54,242.1s56.13-56.75,56.13-56.75-7.54-11.56-19-10.68,9.67-41.12,9.67-41.12,14.3-8.64,24.85-9.5c18.46-1.49,17.36,48.33,17.36,48.33Z" transform="translate(0 8.43)" fill="#efcca3"/><path d="M250,151.86s-71.21,40.56-16.41,51.72l35.2-19.13,40.27,19.1S296.46,142.2,250,151.86Z" transform="translate(0 8.43)" fill="#efebd2"/><path d="M121,187.43s-11.18-41.73,32.51-60.31.21,52.83-1.47,62.6-50.08,23-20.67-26.4" transform="translate(0 8.43)" fill="#f9efd7"/><path d="M115.09,184.43s-3.32,18.44,24,20.07l12.32-13.35Z" transform="translate(0 8.43)" fill="#6f634e"/><path d="M115.09,181.25s2.54-24.69,26.61-21.22,6.74,32.91,4.15,35.08S116.83,207.67,115.09,181.25Z" transform="translate(0 8.43)" fill="#0f0b07"/><ellipse cx="136.88" cy="182.03" rx="15.82" ry="16.74" transform="translate(-6.64 13.61) rotate(-2.12)" fill="#fdfdff"/><path d="M150.46,192.21c-5.49,6.51-15.69,6.25-21.27-.32s-5.65-17.16-.17-23.66,16-7.08,21.53-.52S155.94,185.7,150.46,192.21Z" transform="translate(0 8.43)" fill="#504c3c"/><circle cx="142.64" cy="186.13" r="11.7" fill="#261b10"/><ellipse cx="134.7" cy="172.38" rx="2.16" ry="7.53" transform="translate(-74.22 245.7) rotate(-69.25)" fill="#fff"/><path d="M309.09,204.5s-6.38,36.17-53.77,30.33c0,0-23.45.09-29.52-19.63l76.82-16.06Z" transform="translate(0 8.43)" fill="#6f634e"/><g clip-path="url(#af22c92b-b7be-4848-bae3-dc3922c0e8a5)"><path d="M224.81,212.64s14.83-16.44,27.71-28.58c13.46-12.69,38.75-2.79,56.57,19.49,0,0-5.66,27-50.28,27C228.9,230.55,224.81,212.64,224.81,212.64Z" transform="translate(0 8.43)" fill="#0f0b07"/><circle cx="270.99" cy="218.94" r="26" fill="#fdfdff"/><g clip-path="url(#b1e2e441-6cb3-499e-acbf-e1128a3a437e)"><circle cx="278.47" cy="219.68" r="20.82" fill="#504c3c"/><circle cx="285.3" cy="218.46" r="13.82" fill="#261b10"/><ellipse cx="270.55" cy="197.96" rx="3.19" ry="8.84" transform="translate(-10.42 389.25) rotate(-69.25)" fill="#fff"/></g></g><path d="M144.37,310.15c-.24-8.83-2.66-14.92-6.57-19-4.08-4.28-52.89-19.61-52.89-19.61s-14.1,20.68,0,47.57l14.47,27.53s7,14.34,62.27,12.94,70-26.94,70-26.94-2.1-8.74-21-1.75-32.34,8.83-41.24,8.22c-16.88-1.16-25-12.77-25-12.77Z" transform="translate(0 8.43)" fill="#80776c"/><path d="M84.73,252.85s7.43-20.66,39.66-15.7S159.1,257,159.1,257s9.92,43-46.28,43c0,0-28.09-5.78-28.09-31.89Z" transform="translate(0 8.43)" fill="#3a291a"/><path d="M91.67,259.08s2-6.15,7-3.28,6.56,14.76,2.46,15.58C96.51,272.29,95.77,269.33,91.67,259.08Z" transform="translate(0 8.43)" fill="#261b10"/><path d="M141.71,275.24a12.3,12.3,0,0,1-8.17,2.07c-4.88-.72-17-5.18-10.09-16.35,0,0,2-3.8,5.74-3s7.08,6.13,7.55,16.16A10.42,10.42,0,0,0,141.71,275.24Z" transform="translate(0 8.43)" fill="#261b10"/><path d="M97.54,248.6a165.34,165.34,0,0,1,17.09.74c9.76.87,20.3,2.2,29.11,6.77,1.42.74,2.67-1.4,1.25-2.14-8.91-4.62-19.37-6.07-29.25-7a167.48,167.48,0,0,0-18.2-.84,1.24,1.24,0,0,0,0,2.48Z" transform="translate(0 8.43)" fill="#724f35"/><path d="M110.45,299.31s-1.66-34.84.09-33.1S112.82,300,112.82,300Z" transform="translate(0 8.43)" fill="#261b10"/><path d="M91.67,317.24s15.77,1.4,19.61-2.8c0,0,23.84,14.34,33.09,11.89,0,0,16.58,14,34.43,11.2a349.1,349.1,0,0,0,36.46-8.15s-22.82,12-49.06,10.95S91,332.63,91.67,317.24Z" transform="translate(0 8.43)" fill="#261b10"/><path d="M171.73,295.78a1.69,1.69,0,0,0-.11,2.5,2,2,0,0,0,2.69.11,1.68,1.68,0,0,0,.12-2.5A2,2,0,0,0,171.73,295.78Z" transform="translate(0 8.43)" fill="#e4be88"/><path d="M160.44,304.47a1.67,1.67,0,0,0-.11,2.5,2,2,0,0,0,2.69.11,1.69,1.69,0,0,0,.11-2.5A2,2,0,0,0,160.44,304.47Z" transform="translate(0 8.43)" fill="#e4be88"/><path d="M167.94,313a1.7,1.7,0,0,0-.11,2.51,2,2,0,0,0,2.68.11,1.69,1.69,0,0,0,.11-2.5A2,2,0,0,0,167.94,313Z" transform="translate(0 8.43)" fill="#e4be88"/><path d="M169.84,323.56a1.7,1.7,0,0,0-.12,2.5,2,2,0,0,0,2.68.11,1.7,1.7,0,0,0,.12-2.5A2,2,0,0,0,169.84,323.56Z" transform="translate(0 8.43)" fill="#e4be88"/><path d="M182.21,308a1.69,1.69,0,0,0-.11,2.5,2,2,0,0,0,2.67.11,1.68,1.68,0,0,0,.12-2.5A2,2,0,0,0,182.21,308Z" transform="translate(0 8.43)" fill="#e4be88"/><path d="M161.5,294.61a1.67,1.67,0,0,0-2.22-1.15,2,2,0,0,0-1.23,2.39,1.67,1.67,0,0,0,2.22,1.15A2,2,0,0,0,161.5,294.61Z" transform="translate(0 8.43)" fill="#e4be88"/><path d="M155.19,318.72a1.69,1.69,0,0,0-2.22-1.16,2,2,0,0,0-1.24,2.4,1.69,1.69,0,0,0,2.23,1.15A2,2,0,0,0,155.19,318.72Z" transform="translate(0 8.43)" fill="#e4be88"/><path d="M199.26,306.93a1.68,1.68,0,0,0-2.22-1.15,2,2,0,0,0-1.23,2.38,1.69,1.69,0,0,0,2.23,1.15A2,2,0,0,0,199.26,306.93Z" transform="translate(0 8.43)" fill="#e4be88"/><path d="M191.41,297.94a1.69,1.69,0,0,0-2.22-1.15,2,2,0,0,0-1.23,2.38,1.68,1.68,0,0,0,2.22,1.15A2,2,0,0,0,191.41,297.94Z" transform="translate(0 8.43)" fill="#e4be88"/><path d="M183.32,320.6a1.69,1.69,0,0,0-2.22-1.16,2,2,0,0,0-1.23,2.39,1.69,1.69,0,0,0,2.22,1.15A2,2,0,0,0,183.32,320.6Z" transform="translate(0 8.43)" fill="#e4be88"/><path d="M68.39,289.69a1.67,1.67,0,0,0-.11,2.5,2,2,0,0,0,2.69.11,1.69,1.69,0,0,0,.11-2.5A2,2,0,0,0,68.39,289.69Z" transform="translate(0 8.43)" fill="#e4be88"/><path d="M52.31,300.15a1.69,1.69,0,0,0-.11,2.5,2,2,0,0,0,2.69.11,1.67,1.67,0,0,0,.11-2.5A2,2,0,0,0,52.31,300.15Z" transform="translate(0 8.43)" fill="#e4be88"/><path d="M63.89,308.64a1.69,1.69,0,0,0-.12,2.5,2,2,0,0,0,2.68.11,1.69,1.69,0,0,0,.11-2.5A2,2,0,0,0,63.89,308.64Z" transform="translate(0 8.43)" fill="#e4be88"/><path d="M61.71,319.24a1.69,1.69,0,0,0-.11,2.5,2,2,0,0,0,2.68.11,1.69,1.69,0,0,0,.11-2.5A2,2,0,0,0,61.71,319.24Z" transform="translate(0 8.43)" fill="#e4be88"/><path d="M70.29,302.7a1.69,1.69,0,0,0-.11,2.5,2,2,0,0,0,2.68.11,1.69,1.69,0,0,0,.11-2.5A2,2,0,0,0,70.29,302.7Z" transform="translate(0 8.43)" fill="#e4be88"/><path d="M53.38,290.29a1.67,1.67,0,0,0-2.22-1.15,2,2,0,0,0-1.24,2.39,1.68,1.68,0,0,0,2.23,1.15A2,2,0,0,0,53.38,290.29Z" transform="translate(0 8.43)" fill="#e4be88"/><path d="M78.57,323.57a1.68,1.68,0,0,0-2.22-1.15,2,2,0,0,0-1.23,2.39A1.69,1.69,0,0,0,77.34,326,2,2,0,0,0,78.57,323.57Z" transform="translate(0 8.43)" fill="#e4be88"/><path d="M295.27,308.57c-29.22-6.06-60.18-7.53-90-7.12-1.18,0-1.59,1.39-.18,1.38,29.67-.41,60.47,1.09,89.51,7.1,1,.22,2.09-1.08.72-1.36Z" transform="translate(0 8.43)" fill="#ddcca6"/><path d="M257.33,314.35c-16.61-3.89-34.2-4.83-51.16-4.57-.68,0-.91.89-.11.88,16.86-.26,34.36.7,50.86,4.57.58.14,1.18-.7.41-.88Z" transform="translate(0 8.43)" fill="#ddcca6"/><path d="M271.92,333.31c-25.59-9-53.46-14.06-80.6-17.28-1.07-.13-1.65,1.07-.36,1.23,27,3.2,54.67,8.26,80.11,17.21.9.31,2.05-.74.85-1.16Z" transform="translate(0 8.43)" fill="#ddcca6"/><path d="M287.72,273.56c-29.69,3.88-59.88,11.51-88.54,20.16-1.14.35-1.18,1.44.17,1,28.48-8.59,58.52-16.16,88-20,1-.14,1.73-1.35.34-1.17Z" transform="translate(0 8.43)" fill="#ddcca6"/><path d="M249.72,343.94c-17.64-9.76-37.59-15.77-57.3-20-.79-.17-1.4,1-.47,1.17,19.58,4.18,39.42,10.19,57,19.89.62.34,1.64-.63.81-1.09Z" transform="translate(0 8.43)" fill="#ddcca6"/><path d="M.45,292.6c20.29-6.06,41.79-7.53,62.52-7.12.82,0,1.1,1.39.12,1.38-20.6-.41-42,1.09-62.14,7.1-.71.22-1.45-1.08-.5-1.36Z" transform="translate(0 8.43)" fill="#ddcca6"/><path d="M26.79,298.38c11.53-3.89,23.74-4.83,35.52-4.57.47,0,.63.89.07.88-11.7-.26-23.85.7-35.3,4.57-.41.14-.83-.7-.29-.88Z" transform="translate(0 8.43)" fill="#ddcca6"/><path d="M3.67,329.26c17.78-9,37.12-14.06,56-17.28.75-.13,1.15,1.07.26,1.22-18.72,3.21-38,8.26-55.62,17.21-.63.32-1.43-.73-.6-1.15Z" transform="translate(0 8.43)" fill="#ddcca6"/><path d="M5.69,257.59c20.62,3.88,41.58,11.51,61.48,20.16.79.35.82,1.44-.13,1-19.77-8.59-40.63-16.16-61.11-20-.72-.14-1.2-1.35-.24-1.17Z" transform="translate(0 8.43)" fill="#ddcca6"/><path d="M24.73,349.81c12.25-9.76,26.11-15.77,39.79-20,.54-.17,1,1,.32,1.17C51.25,335.19,37.47,341.2,25.3,350.9c-.43.34-1.14-.63-.57-1.09Z" transform="translate(0 8.43)" fill="#ddcca6"/><path d="M75.57,376.16s39.77,73.12,123.32,64.46,138.85-38.46,138.85-38.46,10,77.74-146.22,69.17C51.79,463.68,75.57,376.16,75.57,376.16Z" transform="translate(0 8.43)" fill="#e8dabc"/><path d="M343,106.23l32.61-53.91s22-26.38,30.13-30.13,10.61,5.6,15.61,13.73,18,42.75,4,78.25a154.34,154.34,0,0,1-21.8,37.69Z" transform="translate(0 8.43)" fill="#dda96b"/><path d="M363.07,121.35s22.9-50,35.8-55.83,13.61,19.37,11.26,28.17-18,49.3-18,49.3Z" transform="translate(0 8.43)" fill="#a07558"/><path d="M234.76,102.07c-11.72,9.29-23.31,20-31.81,32.37-2.65,3.85-5.12,8.14-6,12.78-.59,3.12,4.19,4.45,4.79,1.32,1.57-8.27,8.07-15.52,13.55-21.54a205.65,205.65,0,0,1,18.8-18c1.38-1.18,2.77-2.35,4.19-3.48,2.5-2-1-5.47-3.51-3.5Z" transform="translate(0 8.43)" fill="#dda96b"/><path d="M445.67,201c4,14.65,5.7,30.24,6.25,45.36,1.09,30.26-3.73,61.73-19.78,87.88-10.84,17.66-26.47,31.52-44.82,41-2.83,1.47-.33,5.75,2.51,4.29a118.58,118.58,0,0,0,42.73-36.92c9.56-13.62,16-29.29,19.79-45.46,6.19-26.41,5.86-54.2,1.52-80.87a154,154,0,0,0-3.42-16.62c-.84-3.07-5.63-1.77-4.78,1.32Z" transform="translate(0 8.43)" fill="#dda96b"/></svg>